HIERARCHY
ROOT Hips
{
	OFFSET 0.000000 0.000000 0.000000
	CHANNELS 6 Xposition Yposition Zposition Xrotation Yrotation Zrotation
	JOINT LeftUpLeg_virtual
	{
		OFFSET 0.000000 0.000000 0.000000
		CHANNELS 3 Xrotation Yrotation Zrotation
		JOINT LeftUpLeg
		{
			OFFSET 10.205400 -3.823500 0.155100
			CHANNELS 3 Xrotation Yrotation Zrotation
			JOINT LeftLeg
			{
				OFFSET 0.708757 -12.982077 0.567790
				CHANNELS 3 Xrotation Yrotation Zrotation
				JOINT LeftFoot
				{
					OFFSET -0.708756 -10.717838 -2.184338
					CHANNELS 3 Xrotation Yrotation Zrotation
					JOINT LeftToeBase
					{
						OFFSET 0.108149 -7.191104 7.560241
						CHANNELS 3 Xrotation Yrotation Zrotation
						JOINT LeftToe_End
						{
							OFFSET 0.070230 0.081724 4.490308
							CHANNELS 3 Xrotation Yrotation Zrotation
							End Site
							{
								OFFSET 0 0 0
							}
						}
					}
				}
			}
		}
	}
	JOINT RightUpLeg_virtual
	{
		OFFSET 0.000000 0.000000 0.000000
		CHANNELS 3 Xrotation Yrotation Zrotation
		JOINT RightUpLeg
		{
			OFFSET -10.205400 -3.823500 0.005500
			CHANNELS 3 Xrotation Yrotation Zrotation
			JOINT RightLeg
			{
				OFFSET -0.708756 -12.982134 0.610632
				CHANNELS 3 Xrotation Yrotation Zrotation
				JOINT RightFoot
				{
					OFFSET 0.708754 -10.717769 -1.945823
					CHANNELS 3 Xrotation Yrotation Zrotation
					JOINT RightToeBase
					{
						OFFSET -0.108140 -7.191069 7.372968
						CHANNELS 3 Xrotation Yrotation Zrotation
						JOINT RightToe_End
						{
							OFFSET -0.070227 0.081735 4.479403
							CHANNELS 3 Xrotation Yrotation Zrotation
							End Site
							{
								OFFSET 0 0 0
							}
						}
					}
				}
			}
		}
	}
	JOINT Spine_virtual
	{
		OFFSET 0.000000 0.000000 0.000000
		CHANNELS 3 Xrotation Yrotation Zrotation
		JOINT Spine
		{
			OFFSET 0.000000 6.876099 0.125700
			CHANNELS 3 Xrotation Yrotation Zrotation
			JOINT Spine1
			{
				OFFSET 0.000000 5.730043 0.104720
				CHANNELS 3 Xrotation Yrotation Zrotation
				JOINT Spine1_split
				{
					OFFSET 0.000000 5.730043 0.104720
					CHANNELS 3 Xrotation Yrotation Zrotation
					JOINT Spine2
					{
						OFFSET 0.000000 5.730043 0.104720
						CHANNELS 3 Xrotation Yrotation Zrotation
						JOINT Neck_virtual
						{
							OFFSET 0.000000 0.000000 0.000000
							CHANNELS 3 Xrotation Yrotation Zrotation
							JOINT Neck
							{
								OFFSET 0.000000 10.314075 0.188496
								CHANNELS 3 Xrotation Yrotation Zrotation
								JOINT Head
								{
									OFFSET 0.000000 7.643700 -2.377400
									CHANNELS 3 Xrotation Yrotation Zrotation
									JOINT HeadTop_End
									{
										OFFSET 0.000000 43.788605 -13.619600
										CHANNELS 3 Xrotation Yrotation Zrotation
										End Site
										{
											OFFSET 0 0 0
										}
									}
								}
							}
						}
						JOINT LeftShoulder_virtual
						{
							OFFSET 0.000000 0.000000 0.000000
							CHANNELS 3 Xrotation Yrotation Zrotation
							JOINT LeftShoulder
							{
								OFFSET 2.196100 4.412489 0.087492
								CHANNELS 3 Xrotation Yrotation Zrotation
								JOINT LeftShoulder_split
								{
									OFFSET 2.196100 4.412489 0.087492
									CHANNELS 3 Xrotation Yrotation Zrotation
									JOINT LeftArm
									{
										OFFSET 8.771219 -2.981674 -0.026999
										CHANNELS 3 Xrotation Yrotation Zrotation
										JOINT LeftForeArm
										{
											OFFSET 8.512804 0.000000 -0.000000
											CHANNELS 3 Xrotation Yrotation Zrotation
											JOINT LeftHand
											{
												OFFSET 18.484802 0.000000 -0.000000
												CHANNELS 3 Xrotation Yrotation Zrotation
												End Site
												{
													OFFSET 0 0 0
												}
											}
										}
									}
								}
							}
						}
						JOINT RightShoulder_virtual
						{
							OFFSET 0.000000 0.000000 0.000000
							CHANNELS 3 Xrotation Yrotation Zrotation
							JOINT RightShoulder
							{
								OFFSET -2.196100 4.412496 0.070690
								CHANNELS 3 Xrotation Yrotation Zrotation
								JOINT RightShoulder_split
								{
									OFFSET -2.196100 4.412496 0.070690
									CHANNELS 3 Xrotation Yrotation Zrotation
									JOINT RightArm
									{
										OFFSET -8.771282 -2.981682 -0.094208
										CHANNELS 3 Xrotation Yrotation Zrotation
										JOINT RightForeArm
										{
											OFFSET -8.494598 0.000000 0.000000
											CHANNELS 3 Xrotation Yrotation Zrotation
											JOINT RightHand
											{
												OFFSET -18.483803 0.000000 0.000001
												CHANNELS 3 Xrotation Yrotation Zrotation
												End Site
												{
													OFFSET 0 0 0
												}
											}
										}
									}
								}
							}
						}
					}
				}
			}
		}
	}
}
MOTION
Frames: 7
Frame Time: 0.03333333
2.122663 13.156706 -8.772743 0.000000 0.000000 0.000000 38.386630 -0.378742 4.140104 -95.154856 -6.834464 1.449285 138.501087 4.285994 0.694257 37.093439 9.235584 -38.206692 -1.162324 3.771069 28.250269 0.000000 0.000000 0.000000 39.958895 0.628026 2.457757 -75.073266 28.855271 -27.689823 132.601812 17.001939 0.339576 13.183833 16.182887 26.736630 -26.641040 -3.796614 -25.490058 0.000000 0.000000 0.000000 38.961308 -1.612808 2.158843 21.682442 3.744953 -7.682855 16.475895 2.003111 -0.712763 0.415392 -0.054788 1.499755 0.000000 0.000000 0.000000 17.618111 1.945441 -1.303245 3.595076 -0.774207 3.006157 -3.333739 -8.317768 5.799771 0.000000 0.000000 0.000000 16.828930 1.683781 -1.678042 0.872863 -35.392620 -5.828314 -0.803326 -1.834135 -0.447143 -59.212419 -43.146660 -54.612871 2.220823 -57.200181 1.956726 0.000000 0.000000 0.000000 16.160876 1.894615 -0.627051 -1.189499 12.172165 4.307221 1.351727 -1.473608 -2.686364 -47.240426 18.089575 46.773825 -2.833805 66.889559 1.575934 0.000000 0.000000 0.000000 
2.026939 13.026787 -9.209558 0.000000 0.000000 0.000000 36.632343 -0.738790 3.872722 -95.775494 -7.464166 1.919234 139.803249 3.988292 0.847713 38.500987 8.293526 -38.429568 -0.941830 3.841133 28.158193 0.000000 0.000000 0.000000 38.054618 0.382559 2.243925 -76.379827 29.238865 -24.661547 133.217280 16.545331 0.185907 14.197913 15.662326 27.684114 -26.465161 -3.890915 -25.478798 0.000000 0.000000 0.000000 37.189533 -2.363910 2.139431 21.091972 3.379347 -8.104290 17.641351 1.931900 -1.144083 0.610707 -0.333626 1.554446 0.000000 0.000000 0.000000 18.785435 1.944608 -1.720552 3.555200 -0.430504 2.330327 -1.737304 -7.864217 6.297507 0.000000 0.000000 0.000000 17.942946 1.661022 -2.094398 0.441041 -32.776200 -7.991373 -0.992552 -2.864720 -0.099809 -59.397893 -43.814639 -53.393774 2.570662 -57.291637 2.653027 0.000000 0.000000 0.000000 17.212113 1.817914 -1.010508 -1.087446 11.189006 4.451007 1.414678 -1.129679 -2.696153 -49.736123 18.977286 49.096530 -2.619671 67.430804 1.383119 0.000000 0.000000 0.000000 
1.925793 12.946119 -9.632242 0.000000 0.000000 0.000000 34.718531 -1.326865 3.563258 -95.697070 -7.991908 2.608124 140.786072 3.795251 1.083805 39.937315 7.293431 -38.824622 -0.916848 3.841838 28.140065 0.000000 0.000000 0.000000 36.022985 -0.096755 1.997065 -77.218991 29.076580 -21.278554 133.467934 16.025410 -0.063778 14.986897 15.129639 28.730815 -26.332263 -3.909559 -25.399069 0.000000 0.000000 0.000000 35.207354 -3.340753 2.098255 20.523860 2.969566 -8.509914 18.410401 1.818715 -1.568759 0.537309 -0.711659 1.627349 0.000000 0.000000 0.000000 19.562164 1.902910 -2.120665 3.869825 -0.067652 1.618946 0.161885 -7.390889 6.911259 0.000000 0.000000 0.000000 18.686694 1.596395 -2.472770 0.122638 -29.455471 -10.211818 -1.071691 -3.633983 0.135901 -58.786742 -43.608962 -52.373354 3.106903 -59.287210 3.552476 0.000000 0.000000 0.000000 17.862007 1.673793 -1.392877 -0.909708 10.363662 4.560441 1.476552 -0.976305 -2.542950 -52.205561 20.163166 52.945799 -2.569571 67.776821 1.500871 0.000000 0.000000 0.000000 
1.822803 12.902399 -9.967682 0.000000 0.000000 0.000000 32.741970 -2.184858 3.256265 -94.854655 -8.294170 3.554519 141.411636 3.822556 1.295972 40.958141 6.664163 -39.077165 -0.947223 3.814866 28.111602 0.000000 0.000000 0.000000 33.960022 -0.923679 1.758137 -77.559899 28.515394 -17.834703 133.483029 15.504838 -0.425885 15.510280 14.648358 29.825244 -26.074749 -3.881010 -25.285729 0.000000 0.000000 0.000000 33.101426 -4.545016 2.051043 20.066145 2.533128 -8.893484 18.843788 1.666532 -1.894185 0.377486 -1.180218 1.817854 0.000000 0.000000 0.000000 20.012150 1.799910 -2.427480 4.406554 0.288150 1.001694 2.102945 -6.950228 7.531096 0.000000 0.000000 0.000000 19.135308 1.478179 -2.729031 -0.028176 -25.878912 -12.151452 -0.971712 -3.960757 0.338171 -57.514742 -42.590293 -51.846419 3.654109 -62.565202 4.429640 0.000000 0.000000 0.000000 18.203192 1.485689 -1.689716 -0.700519 9.715172 4.556133 1.426942 -1.016379 -2.295421 -54.527343 21.448848 57.777171 -2.857670 67.412690 2.051989 0.000000 0.000000 0.000000 
1.717478 12.881764 -10.223202 0.000000 0.000000 0.000000 30.800718 -3.350004 3.016471 -93.278609 -8.225582 4.761977 141.690539 4.164071 1.447500 41.054922 6.765896 -38.893378 -0.987457 3.774182 28.031195 0.000000 0.000000 0.000000 31.977248 -2.017849 1.549847 -77.433534 27.702231 -14.628341 133.441215 14.988295 -0.848785 15.720066 14.174888 30.839745 -25.773905 -3.811338 -25.165204 0.000000 0.000000 0.000000 31.029679 -5.879470 1.981423 19.796405 2.119085 -9.253097 19.048527 1.489486 -2.081394 -0.250143 -1.618977 2.198564 0.000000 0.000000 0.000000 20.206766 1.646910 -2.605073 4.978256 0.600185 0.607371 3.892414 -6.558432 8.075802 0.000000 0.000000 0.000000 19.407095 1.305065 -2.844699 -0.028001 -22.590009 -13.545513 -0.822166 -3.689271 0.562543 -56.232299 -40.977074 -52.119753 3.985314 -65.667734 5.053621 0.000000 0.000000 0.000000 18.368006 1.292398 -1.866351 -0.503375 9.356949 4.325895 1.233399 -1.280531 -1.788541 -56.525396 22.892665 62.654568 -3.400582 65.810758 2.834029 0.000000 0.000000 0.000000 
1.613808 12.859585 -10.382441 0.000000 0.000000 0.000000 29.030114 -4.736309 2.866948 -91.233944 -7.790392 6.034057 141.781722 4.773075 1.653895 40.127481 7.471967 -38.389741 -1.114831 3.711921 27.953294 0.000000 0.000000 0.000000 30.159175 -3.242936 1.396221 -76.938550 26.844537 -11.864746 133.453796 14.476128 -1.304279 15.591529 13.654373 31.632508 -25.534930 -3.693165 -25.074009 0.000000 0.000000 0.000000 29.124323 -7.204575 1.895453 19.768316 1.751755 -9.576858 19.095966 1.296823 -2.121689 -0.378179 -2.165017 2.654662 0.000000 0.000000 0.000000 20.170057 1.457443 -2.660853 5.381890 0.864802 0.504520 5.370883 -6.325268 8.529772 0.000000 0.000000 0.000000 19.557424 1.083221 -2.839687 0.042447 -20.042357 -14.300664 -0.712046 -2.984007 0.703017 -55.056034 -39.137670 -53.078595 3.682588 -67.407321 5.002133 0.000000 0.000000 0.000000 18.402666 1.116330 -1.920819 -0.351849 9.252739 3.894731 0.984800 -1.606614 -1.166525 -58.072160 24.746940 66.952936 -3.890811 62.677094 3.487657 0.000000 0.000000 0.000000 
1.524642 12.834812 -10.449413 0.000000 0.000000 0.000000 27.491295 -6.222064 2.812782 -89.060824 -7.104795 7.176493 141.766191 5.488229 2.087507 38.516946 8.291583 -37.883747 -1.451232 3.624840 27.949791 0.000000 0.000000 0.000000 28.554466 -4.529430 1.325061 -76.193615 26.123100 -9.687344 133.521100 13.971472 -1.703765 15.130223 13.034382 32.039468 -25.406907 -3.551987 -24.980971 0.000000 0.000000 0.000000 27.456102 -8.332039 1.783406 19.989877 1.449798 -9.835724 19.003053 1.106557 -2.070101 -0.438208 -2.606841 3.073805 0.000000 0.000000 0.000000 19.922627 1.266952 -2.640827 5.527610 1.029168 0.692871 6.488914 -6.229244 8.892823 0.000000 0.000000 0.000000 19.573838 0.838664 -2.762375 0.088842 -18.447059 -14.515653 -0.817175 -2.135635 0.696191 -53.957685 -37.314170 -54.575230 2.768378 -67.554150 4.271399 0.000000 0.000000 0.000000 18.291189 0.974965 -1.890549 -0.233892 9.281681 3.328811 0.789112 -1.800044 -0.554661 -58.835045 27.027771 70.193758 -4.175962 58.599471 3.815509 0.000000 0.000000 0.000000 
